<svg width="32" height="32" viewBox="0 0 32 32" fill="none" xmlns="http://www.w3.org/2000/svg">
<mask id="mask0_1228_1208" style="mask-type:alpha" maskUnits="userSpaceOnUse" x="0" y="0" width="32" height="32">
<rect width="32" height="32" fill="#D9D9D9"/>
</mask>
<g mask="url(#mask0_1228_1208)">
<path d="M14.1327 18.4L11.266 15.5334C11.0216 15.2889 10.7105 15.1667 10.3327 15.1667C9.9549 15.1667 9.64379 15.2889 9.39935 15.5334C9.1549 15.7778 9.03268 16.0889 9.03268 16.4667C9.03268 16.8445 9.1549 17.1556 9.39935 17.4L13.1993 21.2C13.466 21.4667 13.7771 21.6 14.1327 21.6C14.4882 21.6 14.7993 21.4667 15.066 21.2L22.5993 13.6667C22.8438 13.4222 22.966 13.1111 22.966 12.7334C22.966 12.3556 22.8438 12.0445 22.5993 11.8C22.3549 11.5556 22.0438 11.4334 21.666 11.4334C21.2882 11.4334 20.9771 11.5556 20.7327 11.8L14.1327 18.4ZM15.9993 29.3334C14.1549 29.3334 12.4216 28.9834 10.7993 28.2834C9.17713 27.5834 7.76602 26.6334 6.56602 25.4334C5.36602 24.2334 4.41602 22.8222 3.71602 21.2C3.01602 19.5778 2.66602 17.8445 2.66602 16C2.66602 14.1556 3.01602 12.4222 3.71602 10.8C4.41602 9.1778 5.36602 7.76669 6.56602 6.56669C7.76602 5.36669 9.17713 4.41669 10.7993 3.71669C12.4216 3.01669 14.1549 2.66669 15.9993 2.66669C17.8438 2.66669 19.5771 3.01669 21.1993 3.71669C22.8216 4.41669 24.2327 5.36669 25.4327 6.56669C26.6327 7.76669 27.5827 9.1778 28.2827 10.8C28.9827 12.4222 29.3327 14.1556 29.3327 16C29.3327 17.8445 28.9827 19.5778 28.2827 21.2C27.5827 22.8222 26.6327 24.2334 25.4327 25.4334C24.2327 26.6334 22.8216 27.5834 21.1993 28.2834C19.5771 28.9834 17.8438 29.3334 15.9993 29.3334Z" fill="#141414"/>
</g>
</svg>
